<?xml version="1.0" encoding="UTF-8" standalone="no"?>
<svg width="74px" height="18px" viewBox="0 0 74 18" version="1.1" xmlns="http://www.w3.org/2000/svg" xmlns:xlink="http://www.w3.org/1999/xlink" xmlns:sketch="http://www.bohemiancoding.com/sketch/ns">
    <!-- Generator: Sketch 3.4 (15575) - http://www.bohemiancoding.com/sketch -->
    <title>Artboard 1 Copy</title>
    <desc>Created with Sketch.</desc>
    <defs></defs>
    <g id="Page-1" stroke="none" stroke-width="1" fill="none" fill-rule="evenodd" sketch:type="MSPage">
        <g id="Artboard-1-Copy" sketch:type="MSArtboardGroup" fill="#FFFFFF">
            <path d="M70.2927777,13.0068816 C69.4233042,15.3763307 67.0855865,16.9029459 63.226009,16.9029459 C60.0188179,16.9029459 56.8659922,15.1130585 57.6814751,10.9537221 C58.279121,7.42623879 61.5954181,5.10980723 65.4006301,5.10980723 C69.6403913,5.10980723 71.5431848,7.90012861 70.8364329,11.2169942 L70.6733364,11.9541562 L62.6823537,11.9541562 C62.6823537,12.0591019 62.5739976,12.4276829 62.5739976,12.7962639 C62.5739976,13.7966979 63.117278,14.1652789 63.7696643,14.1652789 C64.4764161,14.1652789 65.1288025,13.7440435 65.4549956,13.0068816 L70.2927777,13.0068816 L70.2927777,13.0068816 Z M66.216113,9.6373615 L66.2701036,9.37408937 C66.4332002,8.47932728 65.9986509,7.84747418 65.0744369,7.84747418 C64.2045885,7.84747418 63.4434711,8.42667286 63.226009,9.6373615 L66.216113,9.6373615 L66.216113,9.6373615 Z" id="Fill-1" sketch:type="MSShapeGroup"></path>
            <path d="M56.9203578,5.32042493 C55.6699506,5.32042493 54.6917461,5.95227802 54.0393598,6.84704011 L53.9306287,6.84704011 L54.1480908,5.42573378 L48.9837407,5.42573378 L48.6575475,6.89969454 L51.48418,6.58376799 L51.4298145,6.84704011 L48.5488165,7.32092994 L46.5376669,16.5870193 L52.0822008,16.5870193 C52.0822008,16.5870193 52.625856,13.9020068 53.0064147,12.3750285 C53.55007,9.84797919 54.9631988,9.32143495 55.8874127,9.32143495 C56.7028956,9.32143495 57.1921854,9.6373615 57.3009164,9.74267034 L58.2251304,5.63635147 C58.1163993,5.58333392 57.6814751,5.32042493 56.9203578,5.32042493" id="Fill-2" sketch:type="MSShapeGroup"></path>
            <path d="M6.47439775,10.0585969 C4.24541114,9.37408937 2.56045474,8.11074631 2.56045474,5.68864277 C2.56045474,2.16115944 6.20257012,0.160654425 11.0950926,0.108 C15.1721322,0.108 17.9443992,1.7929416 17.4551094,5.10980723 L11.5840074,5.10980723 C11.8014695,4.214682 11.2578143,3.68813776 10.2252442,3.68813776 C9.4641268,3.68813776 8.86610601,4.05671873 8.75737495,4.53060855 C8.6486439,5.16209852 9.08356811,5.58333392 10.1165131,5.84696917 C10.9863616,6.10987816 11.5840074,6.26784144 12.4538559,6.47845914 C14.9546701,7.21562109 16.1503368,8.63729056 16.4221644,10.1112513 L9.08356811,10.8484133 L6.47439775,10.0585969 L6.47439775,10.0585969 Z M6.69185986,13.9020068 L7.1811496,11.6382296 L0.875123403,11.6382296 C0.440574121,15.4289851 3.53903423,17.0082547 7.56170829,17.0082547 C11.3665453,17.0082547 15.4435849,15.7449116 16.3134333,12.3750285 L6.69185986,13.9020068 L6.69185986,13.9020068 Z" id="Fill-3" sketch:type="MSShapeGroup"></path>
            <path d="M39.3621672,6.21518701 C39.7970914,5.89926047 40.884027,5.10980723 42.5149928,5.10980723 C44.1999492,5.10980723 45.5047219,5.79395162 46.1027427,7.11031224 L33.273978,8.42667286 L34.9589344,0.529235399 L40.5038433,0.529235399 L39.2534361,6.21518701 L39.3621672,6.21518701 L39.3621672,6.21518701 Z M39.035974,8.7948907 C38.7097809,9.26878052 38.3835877,9.95328804 38.1661256,10.9537221 C37.6768359,13.1648448 38.2204911,13.7440435 38.8728774,13.7440435 C39.7970914,13.7440435 40.5578339,12.9015727 40.9383925,11.0063765 C41.1558547,9.79532477 41.1014891,8.90019955 40.775296,8.53198171 L46.3202048,7.68951091 C46.5920324,8.53198171 46.6463979,9.6373615 46.3745703,10.8484133 C45.5590874,14.8497864 43.0586481,16.9029459 40.2863812,16.9029459 C39.035974,16.9029459 37.6224703,16.5870193 37.0788151,15.2706587 L36.9160934,15.2706587 L36.4811692,16.5870193 L31.4799156,16.5870193 L32.9477849,9.74267034 L39.035974,8.7948907 L39.035974,8.7948907 Z" id="Fill-4" sketch:type="MSShapeGroup"></path>
            <path d="M23.7607607,8.7948907 C23.9238573,8.11074631 24.4675125,7.58420206 25.1742644,7.58420206 C25.8266507,7.58420206 26.1524689,8.16340073 25.9897473,8.74259941 L25.9353818,9.16347167 L31.099357,8.63729056 C30.7187983,6.05722374 28.2727245,4.95184395 25.3917265,4.95184395 C21.0972248,4.95184395 19.0313348,7.00500339 18.5964105,8.84790826 L18.542045,9.11118038 L23.7063951,9.11118038 L23.7607607,8.7948907" id="Fill-5" sketch:type="MSShapeGroup"></path>
            <path d="M17.4007439,12.2174283 C17.2376473,12.6386637 17.1289162,13.1121904 17.1289162,13.6387346 C17.1289162,15.3763307 18.4876795,16.9029459 20.7710316,16.9029459 C22.8365467,16.9029459 24.0325883,16.0604751 24.5762436,15.4816395 L24.6306091,15.4816395 L24.5218781,16.5870193 L29.7402188,16.5870193 L30.9906259,10.7431044 C31.0449914,10.5324867 31.099357,10.2692146 31.1537225,10.0585969 L17.4007439,12.2174283 L17.4007439,12.2174283 Z M25.1742644,12.6386637 C25.0111678,13.4807714 24.413147,14.1652789 23.5976641,14.1652789 C22.7821812,14.1652789 22.455988,13.5334258 22.5647191,12.8492814 C22.7281906,12.2697196 23.3258365,11.6908841 24.4675125,11.6908841 L25.3917265,11.6908841 L25.1742644,12.6386637 L25.1742644,12.6386637 Z" id="Fill-6" sketch:type="MSShapeGroup"></path>
            <text id="®" sketch:type="MSTextLayer" font-family="Helvetica" font-size="3" font-weight="normal">
                <tspan x="71.1616229" y="17.0524259">®</tspan>
            </text>
        </g>
    </g>
</svg>