<svg width="102" height="24" viewBox="0 0 102 24" xmlns="http://www.w3.org/2000/svg"><title>Artboard 1 Copy</title><g fill="#FFF" fill-rule="evenodd"><path d="M96.8 18.51c-1.202 3.38-4.432 5.556-9.764 5.556-4.43 0-8.787-2.553-7.66-8.486.825-5.032 5.407-8.337 10.664-8.337 5.858 0 8.487 3.98 7.51 8.712l-.225 1.052h-11.04c0 .15-.15.675-.15 1.2 0 1.428.75 1.954 1.652 1.954.977 0 1.878-.6 2.33-1.65H96.8zM91.167 13.7l.075-.376c.225-1.276-.375-2.177-1.652-2.177-1.202 0-2.254.825-2.554 2.552h4.13zM78.324 7.544c-1.728 0-3.08.9-3.98 2.177h-.15l.3-2.026H67.36l-.452 2.102 3.905-.45-.075.375-3.98.677-2.78 13.22h7.66s.753-3.832 1.278-6.01c.75-3.605 2.704-4.356 3.98-4.356 1.128 0 1.804.452 1.954.602l1.277-5.858c-.15-.075-.75-.45-1.803-.45M8.627 14.303c-3.08-.977-5.408-2.78-5.408-6.234C3.22 3.036 8.25.182 15.01.107c5.634 0 9.464 2.404 8.788 7.135h-8.112c.3-1.277-.45-2.028-1.877-2.028-1.053 0-1.88.526-2.03 1.202-.15.9.452 1.502 1.88 1.878 1.2.375 2.026.6 3.228.9 3.455 1.052 5.107 3.08 5.483 5.183l-10.138 1.05-3.605-1.125zm.3 5.482l.676-3.23H.89c-.6 5.41 3.68 7.662 9.24 7.662 5.256 0 10.89-1.803 12.09-6.61L8.928 19.785zM54.065 8.82c.6-.45 2.103-1.577 4.356-1.577 2.33 0 4.132.976 4.958 2.854l-17.724 1.878L47.982.71h7.66l-1.727 8.11h.15zm-.45 3.68c-.45.676-.902 1.652-1.202 3.08-.676 3.154.075 3.98.976 3.98 1.276 0 2.327-1.202 2.853-3.905.3-1.728.225-3.005-.225-3.53l7.66-1.202c.376 1.202.45 2.78.076 4.506-1.127 5.707-4.582 8.636-8.412 8.636-1.727 0-3.68-.45-4.432-2.328h-.224l-.6 1.878h-6.91l2.027-9.764 8.412-1.352zM32.51 12.5c.225-.976.976-1.727 1.953-1.727.9 0 1.35.826 1.127 1.652l-.076.6 7.135-.75c-.527-3.68-3.906-5.257-7.887-5.257-5.933 0-8.787 2.93-9.388 5.558l-.075.375h7.135l.075-.45M23.723 17.382c-.226.6-.376 1.277-.376 2.028 0 2.48 1.878 4.656 5.032 4.656 2.853 0 4.506-1.2 5.257-2.027h.075l-.15 1.576h7.21l1.727-8.337c.074-.3.15-.677.224-.977l-19 3.08zm10.74.6c-.225 1.203-1.052 2.18-2.178 2.18-1.127 0-1.578-.902-1.428-1.878.226-.827 1.052-1.653 2.63-1.653h1.276l-.3 1.353z"/><text font-family="Helvetica" font-size="4"><tspan x="98" y="24">®</tspan></text></g></svg>